<svg xmlns="http://www.w3.org/2000/svg" xml:space="preserve" width="982" height="214" style="shape-rendering:geometricPrecision;text-rendering:geometricPrecision;image-rendering:optimizeQuality;fill-rule:evenodd;clip-rule:evenodd" viewBox="0 0 4877.76 1064.97"><defs><style>.str0{stroke:#0072b9;stroke-width:14.67;stroke-miterlimit:22.9256}.fil0{fill:#0072b9;fill-rule:nonzero}</style></defs><g id="Camada_x0020_1"><g id="_2708049980064"><path class="fil0" d="M624.11 587.95c58.6-23.27 142.31-80.81 148.83-220.22h-84.59c-9.85 71.19-28.62 157.44-64.24 220.22zM230.27 367.73c6.53 139.41 90.23 196.93 148.83 220.22-35.6-62.78-54.37-149.03-64.24-220.22h-84.59z"/><path class="fil0" d="M937.67 220.52 567.16 16.74c-40.56-22.31-90.54-22.31-131.1 0L65.56 220.52C24.99 242.85 0 284.08 0 328.7v407.58c0 44.62 24.99 85.85 65.56 108.17l370.5 203.79c40.56 22.3 90.54 22.3 131.1 0l370.51-203.79c40.56-22.32 65.55-63.55 65.55-108.17V328.7c0-44.62-24.99-85.85-65.55-108.18zM810.41 350.08c0 217.65-165.76 272.69-221.09 284.99-19.42 19.58-42.29 32.96-69.18 37.19v42.63c0 41.19 92.64 76.48 129.69 76.48 10.24 0 18.53 7.92 18.53 17.66s-8.29 17.65-18.53 17.65H353.38c-10.23 0-18.53-7.91-18.53-17.65 0-9.74 8.3-17.66 18.53-17.66 37.06 0 129.69-35.29 129.69-76.48v-42.63c-26.89-4.23-49.73-17.61-69.17-37.19-55.33-12.3-221.1-67.33-221.1-284.99v-17.64h117.7c-5.96-54.9-6.52-94.15-6.52-94.15h395.26s-.57 39.25-6.52 94.15h117.69v17.64z"/></g><path class="fil0 str0" d="m1843.18 395.07 15.28-97.64h117.08l2.94-18.86H1861.4l13.89-87.77h134.02l2.88-18.84h-153.84l-38.03 241.97h153.87l2.95-18.86zM1540.25 228.3c-25.04 0-46.81 8.3-64.71 24.73-17.71 16.26-28.85 38.33-33.14 65.59l-1.01 6.65c-4.2 26.33.49 48.42 13.97 65.65 13.64 17.47 32.88 26.34 57.17 26.34 24.94 0 46.63-8.33 64.46-24.76 17.66-16.27 28.83-38.36 33.23-65.74l1.01-6.65c4.1-26.21-.59-48.23-13.95-65.46-13.52-17.51-32.73-26.35-57.03-26.35zm51.3 90.32-.99 6.63c-3.26 20.16-12.33 37.64-26.94 51.95-14.56 14.28-30.83 21.21-49.77 21.21-19.99 0-34.23-6.43-43.52-19.69-9.48-13.47-12.6-30.94-9.29-51.96l1.02-6.65c3.05-19.6 12.04-36.92 26.78-51.44 14.65-14.5 31.04-21.53 50.08-21.53 19.63 0 33.74 6.54 43.14 19.98 9.53 13.71 12.72 31.03 9.49 51.5zM1351.82 168.6c-21.47 0-40.22 4.99-55.75 14.8-15.98 10.07-25.42 24.04-28.07 41.44-3.41 20.87 1.49 36.97 14.55 47.84 12.26 10.24 31.48 19.69 58.74 28.89 26.22 9.15 43.97 17.93 52.72 26.07 8.1 7.54 10.98 18.07 8.79 32.13-1.62 9.86-9.08 18.78-22.17 26.53-13.6 8.03-29.42 12.11-47.01 12.11-19.52 0-35.97-4.27-48.93-12.72-12.15-7.92-16.55-21.41-13.41-41.21l.95-5.9h-17.82l-1.23 3.5-.53 1.72c-4.48 24.97 2.02 43.8 19.29 55.99 16.48 11.6 36.78 17.47 60.34 17.47 23.39 0 43.62-4.82 60.15-14.34 17.12-9.84 27.27-23.93 30.2-41.92 3.05-19.76-2.34-35.72-16.01-47.46-12.78-10.96-32.59-20.91-58.88-29.58-26.2-8.7-43.65-17.32-51.87-25.64-7.74-7.84-10.42-18.39-8.21-32.26 1.56-9.99 8.03-18.67 19.81-26.56 11.95-7.99 26.37-12.03 42.86-12.03 20 0 35.41 5.03 45.78 14.96 10.3 9.86 14.07 22.6 11.52 38.99l-.92 5.89h13.94l3.81-.97 1.49-2.82.5-1.43c4.11-22.48-1.27-40.65-15.98-53.93-14.32-12.97-34.05-19.56-58.65-19.56zM1794.46 397.02c-3.79.52-6.92.9-9.4 1.09-2.42.2-5.01.3-7.72.3-6.6 0-11.1-2.01-14.18-6.33-2.23-3.16-4.35-10.4-1.72-26.93l18.04-114.66h44.46l2.88-19.03h-44.39l7.36-46.45h-20.09l-7.35 46.45h-83.73l3.56-22.45c1.84-11.96 6.48-21.43 13.8-28.15 7.25-6.69 15.74-9.96 25.99-9.96 3.9 0 7.1.17 9.54.5 2.5.38 5.41.94 8.65 1.74l4.98 1.22 5.74-17.79-5.06-1.56c-3.43-1.05-7.17-1.82-11.18-2.27-20.94-2.41-39.13 1.98-52.12 13.62-10.44 9.35-17.17 23.21-20 41.14l-3.8 23.96h-31.43l-2.92 19.03h31.37l-25.71 163.44h19.89l25.72-163.44h83.76l-17.79 113.12c-2.9 18.02-1.32 31.07 4.86 39.92 6.37 9.11 16.49 13.73 30.03 13.73 4.02 0 7.61-.16 10.78-.5a61.68 61.68 0 0 0 9.98-1.94l4.1-1.16-1.15-17.41-5.75.77zM2719.76 185.01h-20.08l-7.36 46.45h-34.42s-16.88-.6-19.65-.6c-15.54 0-28.58 2.83-40.23 9.85-6.08 3.68-11.52 8.17-16.34 13.43l2.75-22.68h-17.91l-28.67 182.47h19.92l17.14-111.79c5.37-15.42 13.73-28.08 24.9-37.67 10.98-9.46 22.37-13.89 36.27-13.9h16.41l-.06-.08h36.94l-17.78 113.12c-2.91 18.02-1.32 31.07 4.85 39.92 6.38 9.11 16.49 13.73 30.02 13.73 4.02 0 7.62-.16 10.8-.5 3.32-.36 6.64-1.01 9.97-1.94l4.1-1.16-1.14-17.41-5.76.77c-3.79.52-6.91.9-9.4 1.09-2.41.2-5.01.3-7.71.3-6.61 0-11.11-2.01-14.18-6.33-2.23-3.16-4.35-10.4-1.73-26.93l18.05-114.66h44.46l2.88-19.03h-44.4l7.36-46.45zM2110.92 321.11l82.67-89.58-26.39-.07-66.28 72.7-43.56-72.7h-23.76l52.97 88.37-86.39 93.79 25.95.31 70.45-77.18 46.42 77.18h23.58zM2296.16 228.3c-15.01 0-28.7 3.23-40.72 9.65a87.476 87.476 0 0 0-18.82 13.43l1.96-19.92h-17.53l-39.07 248.66h19.92l13.17-84.17c4.35 4.81 9.6 8.96 15.7 12.4 10.47 5.91 23.16 8.91 37.65 8.91 22.86 0 42.19-8.14 57.45-24.2 14.92-15.72 24.76-38.05 29.22-66.44l.5-3.32c4.39-28.02 1.29-50.95-9.27-68.14-10.97-17.83-27.85-26.86-50.16-26.86zm39.6 93.5-.51 3.33c-3.49 22.34-11.29 40.47-23.15 53.84-11.63 13.09-25.43 19.44-42.2 19.44-14.43 0-25.96-3-34.26-8.91-8.06-5.75-13.26-13.27-15.87-22.96l12.58-80.13c5.94-10.93 14.16-20.33 24.42-27.93 10.18-7.52 23.03-11.34 38.2-11.34 17.21 0 28.84 6.18 35.53 18.9 7.08 13.45 8.86 32.21 5.26 55.76zM2469.96 228.3c-23.6 0-44.62 8.35-62.45 24.83-17.66 16.31-28.75 38.23-32.91 65.1l-1.66 10.22c-4 24.87.82 46.07 14.3 63 13.65 17.13 31.76 25.81 53.82 25.81 14.46 0 27.56-2.31 38.92-6.85 11.29-4.51 20.92-10.4 28.65-17.51l2.88-2.66-8.84-16.05-5.14 4.6c-6.59 5.86-15.04 10.66-25.18 14.21-10.2 3.58-20.28 5.41-29.95 5.41-18.11 0-31.4-6.1-40.61-18.66-9.34-12.73-12.43-29.48-9.19-49.73l1.3-7.92h133.52l2.65-17.6c3.56-22.75-.3-41.3-11.42-55.1-11.27-14.02-27.65-21.1-48.69-21.1zm40.62 74.06-.15.89h-111.56c4.79-15.15 13.24-28.14 25.22-38.69 13.31-11.71 27.86-17.42 44.53-17.42 16.12 0 27.46 4.76 34.71 14.53 7.37 9.97 9.82 23.69 7.25 40.69zM4853.59 651.95c-15.41-20.96-38.56-31.45-69.52-31.45-30.77 0-58.91 12.24-84.42 36.7-25.5 24.46-41.53 56.55-48.1 96.25l-2.33 13.59c-6.41 37.56-.53 68.78 17.62 93.65 18.17 24.87 43.06 37.32 74.69 37.32 20.75 0 39.17-3.1 55.25-9.28 16.08-6.17 29.92-14.53 41.5-25.08l-9.34-20.27c-10.54 9.32-22.77 16.56-36.69 21.71-13.93 5.13-29.43 7.71-46.55 7.71-25.42 0-44.15-9.8-56.16-29.4-12.01-19.59-15.44-44.99-10.23-76.14l1.03-7.14h183.63l4.14-25.25c5.71-34.32.87-61.97-14.52-82.92zm-14.01 75.55-1.3 7.4h-150.43l-.5-1.46c6.74-24.88 18.8-45.72 36.18-62.52 17.35-16.8 36.18-25.2 56.4-25.2 22.99 0 39.67 7.58 50.05 22.73 10.38 15.15 13.57 34.84 9.6 59.05zM4502.8 507.33l-8.83 41.52h29.83l8.83-41.52zM4347.41 814.86c-9.34 17.66-21.74 31.75-37.22 42.22-15.48 10.48-33.34 15.72-53.56 15.72-20.41 0-34.45-6.56-42.15-19.69-7.68-13.12-7.83-37.1-.39-71.91l32.43-155.75h-30.09L4184 780.38c-8.47 39.53-6.48 69.03 5.97 88.46 12.44 19.44 31.63 29.17 57.59 29.17 19.35 0 36.9-3.92 52.64-11.74 15.75-7.83 29.32-19.31 40.73-34.47l-6.23 41.02h26.45l56.03-267.37h-30.1l-39.67 189.41zM4059.62 527.85c-31.47 0-58.41 7.28-80.8 21.87-22.39 14.57-36.44 35.37-42.15 62.39-6.57 30.81-1.97 54.28 13.75 70.42 15.74 16.15 41.93 30.56 78.6 43.24 34.4 12.68 57.27 25.09 68.6 37.26 11.32 12.17 14.67 29.27 10 51.3-3.47 16.12-14.54 29.89-33.2 41.33-18.68 11.42-39.1 17.14-61.22 17.14-28.19 0-51.05-6.12-68.61-18.35-17.55-12.23-23.03-33.88-16.46-64.92h-27.76l-.77 1.48c-8.48 36.41-1.08 63.35 22.17 80.8 23.26 17.46 52 26.2 86.23 26.2 33.73 0 62.35-7.03 85.87-21.08 23.5-14.04 38.2-34.97 44.08-62.74 6.23-29.73 1.25-52.9-14.9-69.5-16.19-16.59-42.58-31.3-79.25-44.12-35.27-12.89-58.14-25.29-68.61-37.19-10.45-11.9-13.27-29.09-8.42-51.57 3.29-15.87 13.36-29.63 30.21-41.28 16.87-11.65 36.01-17.48 57.46-17.48 28.02 0 48.89 7.58 62.64 22.73 13.74 15.16 17.93 35.42 12.59 60.79h28.26l.5-1.23c7.61-32.95 1.69-59.11-17.76-78.46-19.45-19.36-46.47-29.03-81.05-29.03zM4421.86 892.82h29.84l56.01-267.37h-29.83zM4590.81 872.06c-10.55 0-18.12-3.34-22.7-10.01-4.57-6.68-4.89-19.4-.91-38.18l36.57-174.21h57.07l4.94-24.21h-57.08l14.54-68.44h-30.36l-14.51 68.44h-44.88l-4.93 24.21h44.87l-36.57 174.21c-5.54 25.36-4.06 44.08 4.41 56.09 8.47 12.02 21.35 18.05 38.64 18.05 7.09 0 14.28-.58 21.54-1.74 7.25-1.16 13.39-2.8 18.39-4.93l.27-22c-5.35.83-10.5 1.47-15.43 1.97s-9.56.75-13.87.75z"/><g id="_2708049987680"><path class="fil0" d="m2414.06 517.14-65.81 373.51 84.07.55 75.75-424.21zM2545.57 517.14l-65.82 373.51 84.09.55 75.74-424.21zM1272.75 829.5l18.49-116.27h158.43l9.99-62.9h-158.75l16.14-102.3h188.09l9.68-62.92h-273.47l-63.97 407.03h274.07l9.98-62.64zM1801.15 589.67h-96.85l-63.68 96.17-1.77-.29-32.55-95.88h-96.25l72.48 149.55-122.94 152.92h96.82l67.77-100.36 36.13 100.36h96.5l-74.8-152.92z"/><path class="fil0" d="M1925.45 584.08c-47.15 0-85.59 13.98-115.3 41.93-29.75 27.95-48.26 64.93-55.46 110.98l-1.17 8.37c-7.05 43.83.42 80.2 22.44 109.17 21.99 28.96 55.61 43.48 100.79 43.48 36.96 0 69.18-10.02 96.68-30.04 27.48-20.05 43.38-45.9 47.68-77.56l-.58-1.71h-77.76c-2.34 13.99-8.75 25.26-19.24 33.84-10.45 8.57-22.83 12.84-37.1 12.84-22.69 0-37.36-8.05-44.02-24.15-6.66-16.13-7.73-38.07-3.23-65.87l1.17-8.37c4.12-25.74 12.38-47.15 24.81-64.29 12.41-17.16 29.28-25.73 50.62-25.73 15.66 0 26.93 5.09 33.9 15.23 6.92 10.16 9.13 23.26 6.58 39.3h78.34l.6-1.39c6.24-34.5-1.13-62.45-22.14-83.87-21.06-21.46-50.23-32.16-87.61-32.16zM2309.47 621.81c-19.68-25.15-50.02-37.73-91.1-37.73-45.59-.18-83.38 13.74-113.43 41.79-30.02 28.03-48.65 65.55-55.89 112.53l-1.77 11.15c-7.02 42.87 1.09 78.32 24.38 106.4 23.25 28.04 57.59 42.06 102.98 42.06 25.63 0 49.77-3.34 72.48-10.06 22.68-6.73 41.28-15.03 55.75-24.89l-15.25-50.31c-15.08 7.45-29.94 13.09-44.61 16.92-14.67 3.8-31.21 5.71-49.58 5.71-23.46 0-40.12-6.29-49.9-18.88-9.78-12.56-13.48-29.56-11.13-51l.57-1.41h189.54l6.48-42.19c6.64-41.56.14-74.93-19.52-100.09zm-61.46 82.2-.89 6.16h-103.87l-.58-1.69c5.07-18.28 13.23-33.08 24.5-44.44 11.24-11.38 25.07-17.07 41.5-17.07 17.22 0 28.82 4.94 34.77 14.82 5.99 9.86 7.48 23.94 4.57 42.22zM2894.33 621.81c-19.64-25.15-50.03-37.73-91.09-37.73-45.58-.18-83.39 13.74-113.43 41.79-30.02 28.03-48.67 65.55-55.9 112.53l-1.74 11.15c-7.05 42.87 1.04 78.32 24.34 106.4 23.27 28.04 57.61 42.06 103 42.06 25.63 0 49.78-3.34 72.46-10.06 22.7-6.73 41.3-15.03 55.77-24.89l-15.25-50.31c-15.09 7.45-29.94 13.09-44.6 16.92-14.68 3.8-31.24 5.71-49.6 5.71-23.46 0-40.1-6.29-49.89-18.88-9.79-12.56-13.5-29.56-11.14-51l.58-1.41h189.56l6.44-42.19c6.65-41.56.16-74.93-19.51-100.09zm-61.45 82.2-.91 6.16h-103.86l-.58-1.69c5.06-18.28 13.24-33.08 24.5-44.44 11.24-11.38 25.09-17.07 41.51-17.07 17.22 0 28.81 4.94 34.77 14.82 5.96 9.86 7.48 23.94 4.57 42.22zM3147.55 584.08c-19.16 0-37.15 4.09-54 12.31-16.8 8.18-31.58 19.85-44.29 34.91l2.67-41.63h-79.84l-47.54 302.47h85.7l34.31-217.76c7.64-8.4 16.7-14.98 27.16-19.71 10.44-4.77 21.97-7.14 34.47-7.14 16.23 0 27.54 4.34 33.88 12.99 6.38 8.68 7.78 24.21 4.29 46.56l-29.06 185.06h85.97l29.04-185.33c6.63-41.95 2.24-72.86-13.22-92.82-15.45-19.95-38.63-29.91-69.54-29.91zM3428.63 584.08c-47.14 0-85.57 13.98-115.33 41.93-29.73 27.95-48.2 64.93-55.45 110.98l-1.18 8.37c-7.03 43.83.46 80.2 22.43 109.17 22.05 28.96 55.64 43.48 100.83 43.48 36.96 0 69.2-10.02 96.66-30.04 27.49-20.05 43.39-45.9 47.72-77.56l-.62-1.71h-77.76c-2.35 13.99-8.76 25.26-19.2 33.84-10.48 8.57-22.84 12.84-37.15 12.84-22.68 0-37.35-8.05-44-24.15-6.65-16.13-7.73-38.07-3.23-65.87l1.19-8.37c4.1-25.74 12.35-47.15 24.79-64.29 12.41-17.16 29.29-25.73 50.59-25.73 15.66 0 26.96 5.09 33.91 15.23 6.95 10.16 9.15 23.26 6.62 39.3h78.33l.58-1.39c6.26-34.5-1.12-62.45-22.16-83.87-21.01-21.46-50.22-32.16-87.57-32.16zM3812.64 621.81c-19.65-25.15-50.04-37.73-91.11-37.73-45.58-.18-83.39 13.74-113.41 41.79-30.02 28.03-48.63 65.55-55.89 112.53l-1.74 11.15c-7.06 42.87 1.06 78.32 24.32 106.4 23.3 28.04 57.62 42.06 103 42.06 25.64 0 49.8-3.34 72.49-10.06 22.69-6.73 41.27-15.03 55.75-24.89l-15.27-50.31c-15.06 7.45-29.92 13.09-44.6 16.92-14.66 3.8-31.2 5.71-49.6 5.71-23.46 0-40.09-6.29-49.86-18.88-9.81-12.56-13.51-29.56-11.16-51l.58-1.41h189.57l6.45-42.19c6.65-41.56.13-74.93-19.52-100.09zm-61.47 82.2-.87 6.16h-103.9l-.58-1.69c5.11-18.28 13.25-33.08 24.52-44.44 11.24-11.38 25.1-17.07 41.51-17.07 17.22 0 28.79 4.94 34.79 14.82 5.96 9.86 7.46 23.94 4.53 42.22z"/></g></g></svg>